<svg width="512" height="512" viewBox="0 0 512 512" fill="none" xmlns="http://www.w3.org/2000/svg" role="img" aria-label="SisTur">
  <defs>
    <linearGradient id="bg" x1="96" y1="64" x2="416" y2="448" gradientUnits="userSpaceOnUse">
      <stop stop-color="#0077B6" />
      <stop offset="1" stop-color="#00B4D8" />
    </linearGradient>
    <linearGradient id="accent" x1="164" y1="172" x2="348" y2="348" gradientUnits="userSpaceOnUse">
      <stop stop-color="#FFFFFF" />
      <stop offset="1" stop-color="#DFF6FF" />
    </linearGradient>
  </defs>
  <rect width="512" height="512" rx="128" fill="url(#bg)" />
  <circle cx="256" cy="256" r="150" fill="white" opacity="0.14" />
  <path d="M256 104C178 104 114 168 114 246c0 104 142 262 142 262s142-158 142-262c0-78-64-142-142-142Zm0 203c-34 0-62-28-62-62s28-62 62-62 62 28 62 62-28 62-62 62Z" fill="url(#accent)" />
  <circle cx="256" cy="245" r="34" fill="#0077B6" />
  <path d="M196 330c18 11 38 17 60 17s42-6 60-17" stroke="#0077B6" stroke-width="18" stroke-linecap="round" fill="none" />
</svg>
